<svg xmlns="http://www.w3.org/2000/svg" viewBox="0 0 360 460" width="360" height="460" role="img" aria-label="Дроп — антропоморфная капля воды, маскот Aykakchisto.ru">
  <defs>
    <radialGradient id="drBg" cx="50%" cy="40%" r="60%">
      <stop offset="0%" stop-color="#dbeafe" stop-opacity="0.7"/>
      <stop offset="100%" stop-color="#dbeafe" stop-opacity="0"/>
    </radialGradient>
    <linearGradient id="drBody" x1="0%" y1="0%" x2="0%" y2="100%">
      <stop offset="0%" stop-color="#7dd3fc"/>
      <stop offset="40%" stop-color="#38bdf8"/>
      <stop offset="80%" stop-color="#0ea5e9"/>
      <stop offset="100%" stop-color="#0369a1"/>
    </linearGradient>
    <linearGradient id="drBodyEdge" x1="0%" y1="0%" x2="0%" y2="100%">
      <stop offset="0%" stop-color="#0ea5e9"/>
      <stop offset="100%" stop-color="#0c4a6e"/>
    </linearGradient>
    <radialGradient id="drHighlight" cx="35%" cy="30%" r="40%">
      <stop offset="0%" stop-color="#fff" stop-opacity="0.85"/>
      <stop offset="100%" stop-color="#fff" stop-opacity="0"/>
    </radialGradient>
    <linearGradient id="drBottle" x1="0%" y1="0%" x2="0%" y2="100%">
      <stop offset="0%" stop-color="#fff"/>
      <stop offset="100%" stop-color="#e0f2fe"/>
    </linearGradient>
    <linearGradient id="drSpray" x1="50%" y1="0%" x2="50%" y2="100%">
      <stop offset="0%" stop-color="#7dd3fc" stop-opacity="0"/>
      <stop offset="100%" stop-color="#0ea5e9" stop-opacity="0.7"/>
    </linearGradient>
    <filter id="drShadow" x="-30%" y="-30%" width="160%" height="160%">
      <feGaussianBlur in="SourceAlpha" stdDeviation="4"/>
      <feOffset dx="0" dy="6" result="b"/>
      <feComponentTransfer><feFuncA type="linear" slope="0.18"/></feComponentTransfer>
      <feMerge><feMergeNode/><feMergeNode in="SourceGraphic"/></feMerge>
    </filter>
  </defs>

  <rect width="360" height="460" fill="#f4f6f8"/>
  <rect width="360" height="460" fill="url(#drBg)"/>

  <ellipse cx="180" cy="430" rx="100" ry="14" fill="#000" fill-opacity="0.16"/>

  <g opacity="0.35">
    <ellipse cx="60" cy="80" rx="6" ry="9" fill="#7dd3fc"/>
    <ellipse cx="305" cy="100" rx="5" ry="7" fill="#38bdf8"/>
    <ellipse cx="320" cy="350" rx="6" ry="8" fill="#7dd3fc"/>
    <ellipse cx="40" cy="380" rx="5" ry="7" fill="#38bdf8"/>
  </g>

  <g filter="url(#drShadow)">
    <path d="M 180,90 Q 130,160 110,260 Q 100,360 180,390 Q 260,360 250,260 Q 230,160 180,90 Z" fill="url(#drBody)" stroke="url(#drBodyEdge)" stroke-width="2"/>
    <path d="M 180,90 Q 130,160 110,260 Q 100,360 180,390 Q 260,360 250,260 Q 230,160 180,90 Z" fill="url(#drHighlight)"/>

    <ellipse cx="146" cy="220" rx="14" ry="14" fill="#fff" stroke="#0c4a6e" stroke-width="2"/>
    <circle cx="148" cy="222" r="9" fill="#1e3a5f"/>
    <circle cx="148" cy="220" r="6" fill="#e8a04c"/>
    <circle cx="150" cy="218" r="3" fill="#fff"/>
    <circle cx="146" cy="225" r="1.5" fill="#fff" opacity="0.85"/>

    <ellipse cx="214" cy="220" rx="14" ry="14" fill="#fff" stroke="#0c4a6e" stroke-width="2"/>
    <circle cx="216" cy="222" r="9" fill="#1e3a5f"/>
    <circle cx="216" cy="220" r="6" fill="#e8a04c"/>
    <circle cx="218" cy="218" r="3" fill="#fff"/>
    <circle cx="214" cy="225" r="1.5" fill="#fff" opacity="0.85"/>

    <path d="M 130,210 Q 138,200 152,206" stroke="#0c4a6e" stroke-width="2.5" stroke-linecap="round" fill="none"/>
    <path d="M 208,206 Q 222,200 230,210" stroke="#0c4a6e" stroke-width="2.5" stroke-linecap="round" fill="none"/>

    <path d="M 152,272 Q 180,294 208,272 Q 200,300 180,300 Q 160,300 152,272 Z" fill="#0c4a6e"/>
    <path d="M 168,290 Q 180,302 192,290" stroke="#fff" stroke-width="1.5" stroke-linecap="round" fill="none" opacity="0.5"/>
    <path d="M 174,290 Q 178,300 184,290 L 184,294 Q 180,300 174,294 Z" fill="#e8a04c"/>

    <ellipse cx="125" cy="252" rx="10" ry="6" fill="#fda4af" opacity="0.55"/>
    <ellipse cx="235" cy="252" rx="10" ry="6" fill="#fda4af" opacity="0.55"/>

    <ellipse cx="170" cy="160" rx="22" ry="36" fill="url(#drHighlight)" opacity="0.85"/>
  </g>

  <g transform="translate(86 280)" filter="url(#drShadow)">
    <ellipse cx="0" cy="0" rx="22" ry="14" fill="url(#drBody)" stroke="url(#drBodyEdge)" stroke-width="1.5"/>
    <ellipse cx="-3" cy="-4" rx="10" ry="6" fill="url(#drHighlight)" opacity="0.7"/>
  </g>

  <g transform="translate(264 290)" filter="url(#drShadow)">
    <ellipse cx="0" cy="0" rx="22" ry="14" fill="url(#drBody)" stroke="url(#drBodyEdge)" stroke-width="1.5"/>
    <g transform="translate(8 -4)">
      <rect x="-12" y="-26" width="22" height="32" rx="4" fill="url(#drBottle)" stroke="#0c4a6e" stroke-width="1.5"/>
      <rect x="-8" y="-32" width="14" height="6" rx="2" fill="#0c4a6e"/>
      <path d="M -1,-32 L -1,-44 L 16,-44 L 16,-38 L 4,-38 L 4,-32 Z" fill="#0c4a6e"/>
      <rect x="14" y="-44" width="6" height="6" rx="2" fill="#e8a04c"/>
      <rect x="-10" y="-22" width="18" height="14" rx="2" fill="#7dd3fc" opacity="0.7"/>
      <text x="-1" y="-12" font-family="DM Sans,sans-serif" font-size="6" font-weight="800" fill="#0c4a6e" text-anchor="middle">CLEAN</text>
      <g stroke="url(#drSpray)" stroke-width="2" stroke-linecap="round" fill="none" opacity="0.85">
        <path d="M 22,-40 Q 32,-44 42,-46"/>
        <path d="M 22,-38 Q 32,-38 44,-36"/>
        <path d="M 22,-36 Q 32,-32 42,-28"/>
      </g>
      <circle cx="38" cy="-44" r="2" fill="#7dd3fc"/>
      <circle cx="42" cy="-32" r="1.5" fill="#7dd3fc"/>
    </g>
  </g>

  <g transform="translate(120 380)" filter="url(#drShadow)">
    <ellipse cx="0" cy="0" rx="20" ry="10" fill="url(#drBody)" stroke="url(#drBodyEdge)" stroke-width="1.5"/>
    <ellipse cx="-3" cy="-2" rx="8" ry="4" fill="url(#drHighlight)" opacity="0.6"/>
  </g>
  <g transform="translate(240 380)" filter="url(#drShadow)">
    <ellipse cx="0" cy="0" rx="20" ry="10" fill="url(#drBody)" stroke="url(#drBodyEdge)" stroke-width="1.5"/>
    <ellipse cx="-3" cy="-2" rx="8" ry="4" fill="url(#drHighlight)" opacity="0.6"/>
  </g>

  <g transform="translate(80 60)" font-family="DM Sans,system-ui,sans-serif">
    <rect width="120" height="30" rx="6" fill="#fff" stroke="#bae6fd" stroke-width="2"/>
    <text x="60" y="14" font-size="9" font-weight="800" fill="#0369a1" text-anchor="middle" letter-spacing="0.5">ВСЁ ЧИСТО</text>
    <text x="60" y="25" font-size="9" font-weight="700" fill="#475569" text-anchor="middle">pH 7.2 · 22°C</text>
    <path d="M 110,30 L 120,40 L 108,38 Z" fill="#fff" stroke="#bae6fd" stroke-width="2"/>
  </g>

  <g transform="translate(150 100)" opacity="0.55">
    <line x1="0" y1="0" x2="0" y2="-10" stroke="#0ea5e9" stroke-width="1.5"/>
    <line x1="-6" y1="-2" x2="-12" y2="-8" stroke="#0ea5e9" stroke-width="1.5"/>
    <line x1="6" y1="-2" x2="12" y2="-8" stroke="#0ea5e9" stroke-width="1.5"/>
    <circle cx="-6" cy="-12" r="2" fill="#7dd3fc"/>
    <circle cx="6" cy="-12" r="2" fill="#7dd3fc"/>
  </g>
</svg>
