<svg xmlns="http://www.w3.org/2000/svg" viewBox="0 0 1200 630" width="1200" height="630" role="img" aria-label="Дарья Метёлкина — главный редактор Aykakchisto.ru">
  <defs>
    <linearGradient id="ayOAbg" x1="0%" y1="0%" x2="100%" y2="100%">
      <stop offset="0%" stop-color="#1e3a5f"/>
      <stop offset="100%" stop-color="#0f1e36"/>
    </linearGradient>
    <linearGradient id="ayOAcard" x1="0%" y1="0%" x2="0%" y2="100%">
      <stop offset="0%" stop-color="#fff"/>
      <stop offset="100%" stop-color="#f4f6f8"/>
    </linearGradient>
  </defs>

  <rect width="1200" height="630" fill="url(#ayOAbg)"/>

  <g stroke="#e8a04c" stroke-width="0.8" fill="none" opacity="0.20">
    <line x1="0" y1="120" x2="1200" y2="120"/>
    <line x1="0" y1="240" x2="1200" y2="240"/>
    <line x1="0" y1="360" x2="1200" y2="360"/>
    <line x1="0" y1="480" x2="1200" y2="480"/>
    <line x1="200" y1="0" x2="200" y2="630"/>
    <line x1="400" y1="0" x2="400" y2="630"/>
    <line x1="600" y1="0" x2="600" y2="630"/>
    <line x1="800" y1="0" x2="800" y2="630"/>
    <line x1="1000" y1="0" x2="1000" y2="630"/>
  </g>

  <g transform="translate(60 80)" filter="drop-shadow(0 12px 28px rgba(0,0,0,0.4))">
    <rect width="1080" height="470" rx="24" fill="url(#ayOAcard)"/>

    <g transform="translate(60 70)">
      <rect width="56" height="56" rx="14" fill="url(#ayOAbg)"/>
      <text x="28" y="36" font-family="DM Sans,sans-serif" font-size="26" font-weight="800" fill="#e8a04c" text-anchor="middle">A</text>
      <text x="78" y="36" font-family="DM Sans,system-ui,sans-serif" font-size="22" font-weight="800" fill="#1e3a5f">aykakchisto<tspan fill="#e8a04c">.ru</tspan></text>
    </g>

    <g transform="translate(60 200)" font-family="DM Sans,system-ui,sans-serif">
      <text font-size="20" font-weight="700" fill="#92400e" letter-spacing="2">ОБ АВТОРЕ</text>
      <text y="80" font-size="68" font-weight="800" fill="#1e3a5f">Дарья Метёлкина</text>
      <text y="138" font-size="22" font-weight="600" fill="#475569">Главный редактор · 40 · химфак МГУ</text>
      <text y="170" font-size="22" font-weight="600" fill="#475569">16 лет лаборатории · ПАВы · мама двоих</text>
    </g>

    <g transform="translate(700 90)">
      <ellipse cx="120" cy="350" rx="120" ry="14" fill="#000" fill-opacity="0.10"/>
      <path d="M 30,350 L 30,260 Q 30,200 90,190 L 150,190 Q 210,200 210,260 L 210,350 Z" fill="#fff"/>
      <path d="M 30,350 L 30,210 Q 30,200 50,200 L 95,200 L 95,220 Q 110,210 120,210 Q 130,210 145,220 L 145,200 L 190,200 Q 210,200 210,210 L 210,350 Z" fill="#f4f6f8"/>
      <path d="M 95,190 L 95,220 Q 120,232 145,220 L 145,190 Z" fill="#1e3a5f"/>
      <path d="M 95,190 L 95,200 Q 120,212 145,200 L 145,190 Z" fill="#2a4a6f"/>
      <circle cx="120" cy="210" r="3" fill="#e8a04c"/>
      <rect x="108" y="170" width="24" height="22" fill="#1e3a5f"/>
      <ellipse cx="120" cy="138" rx="40" ry="44" fill="#1e3a5f"/>
      <path d="M 76,116 Q 74,82 100,72 Q 130,68 152,82 Q 168,98 165,124 L 165,180 Q 158,192 145,188 L 145,156 Q 145,134 135,124 Q 158,124 162,98 Q 158,80 130,76 Q 96,76 80,98 Q 76,116 75,180 Q 70,192 78,180 Z" fill="#0a1729"/>
      <path d="M 75,124 Q 70,150 68,180 Q 70,192 80,190 L 80,170 Q 80,148 75,124 Z" fill="#0a1729"/>
      <path d="M 165,124 Q 170,150 172,180 Q 170,192 160,190 L 160,170 Q 160,148 165,124 Z" fill="#0a1729"/>
      <circle cx="100" cy="138" r="11" fill="none" stroke="#fff" stroke-width="2.5"/>
      <circle cx="140" cy="138" r="11" fill="none" stroke="#fff" stroke-width="2.5"/>
      <line x1="111" y1="138" x2="129" y2="138" stroke="#fff" stroke-width="2.5"/>
      <circle cx="100" cy="138" r="2.5" fill="#fff"/>
      <circle cx="140" cy="138" r="2.5" fill="#fff"/>
      <path d="M 110,160 Q 120,166 130,160" stroke="#fff" stroke-width="2" stroke-linecap="round" fill="none"/>
      <path d="M 116,164 Q 120,168 124,164" stroke="#e8a04c" stroke-width="1.5" stroke-linecap="round" fill="none" opacity="0.85"/>
      <circle cx="155" cy="146" r="3" fill="#e8a04c"/>
      <circle cx="85" cy="146" r="3" fill="#e8a04c"/>
      <path d="M 30,300 Q 38,290 56,294 L 56,326 Q 40,328 30,322 Z" fill="#e8a04c"/>
      <text x="42" y="316" font-family="DM Sans,sans-serif" font-size="10" font-weight="800" fill="#fff" text-anchor="middle">МГУ</text>
    </g>
  </g>

  <g transform="translate(60 580)">
    <rect width="380" height="34" rx="17" fill="#fff"/>
    <text x="190" y="22" font-family="DM Sans,sans-serif" font-size="13" font-weight="800" fill="#e8a04c" text-anchor="middle" letter-spacing="0.5">Литературный псевдоним редакции</text>
  </g>
  <g transform="translate(960 580)">
    <rect width="180" height="34" rx="17" fill="#0f1e36"/>
    <text x="90" y="22" font-family="DM Sans,sans-serif" font-size="13" font-weight="800" fill="#fff" text-anchor="middle" letter-spacing="0.5">aykakchisto.ru</text>
  </g>
</svg>
