<svg xmlns="http://www.w3.org/2000/svg" viewBox="0 0 240 240" width="240" height="240" role="img" aria-label="Дмитрий Полкин — главный редактор Popolkam.ru">
  <defs>
    <linearGradient id="popAvatarBg" x1="0%" y1="0%" x2="100%" y2="100%">
      <stop offset="0%" stop-color="#f97316"/>
      <stop offset="100%" stop-color="#ef4444"/>
    </linearGradient>
    <radialGradient id="popAvatarVignette" cx="50%" cy="40%" r="65%">
      <stop offset="0%" stop-color="#fff" stop-opacity="0.08"/>
      <stop offset="100%" stop-color="#000" stop-opacity="0.18"/>
    </radialGradient>
    <clipPath id="popAvatarClip">
      <circle cx="120" cy="120" r="110"/>
    </clipPath>
  </defs>

  <circle cx="120" cy="120" r="110" fill="url(#popAvatarBg)"/>
  <circle cx="120" cy="120" r="110" fill="url(#popAvatarVignette)"/>

  <ellipse cx="44" cy="58" rx="9" ry="13" fill="#fff" fill-opacity="0.16" transform="rotate(-22 44 58)"/>
  <line x1="44" y1="49" x2="44" y2="67" stroke="#fff" stroke-opacity="0.16" stroke-width="1.5" transform="rotate(-22 44 58)"/>
  <ellipse cx="202" cy="194" rx="8" ry="12" fill="#fff" fill-opacity="0.16" transform="rotate(28 202 194)"/>
  <line x1="202" y1="186" x2="202" y2="202" stroke="#fff" stroke-opacity="0.16" stroke-width="1.5" transform="rotate(28 202 194)"/>

  <g clip-path="url(#popAvatarClip)">
    <path d="M 50,250 L 50,210 Q 50,168 95,160 L 145,160 Q 190,168 190,210 L 190,250 Z" fill="#0f172a"/>
    <path d="M 95,160 L 95,178 Q 120,186 145,178 L 145,160 Z" fill="#1e293b"/>
    <path d="M 88,168 Q 120,180 152,168" stroke="#0a0e17" stroke-width="1" fill="none" opacity="0.6"/>

    <rect x="108" y="140" width="24" height="20" fill="#0f172a"/>

    <ellipse cx="120" cy="116" rx="40" ry="44" fill="#0f172a"/>
    <path d="M 80,100 Q 80,72 120,68 Q 160,72 160,100 L 160,90 Q 160,76 120,76 Q 80,76 80,90 Z" fill="#020617"/>
    <path d="M 86,108 Q 90,90 102,86" stroke="#020617" stroke-width="3" stroke-linecap="round" fill="none"/>
    <path d="M 154,108 Q 150,90 138,86" stroke="#020617" stroke-width="3" stroke-linecap="round" fill="none"/>

    <circle cx="104" cy="116" r="11" fill="none" stroke="#fff" stroke-width="2.5"/>
    <circle cx="136" cy="116" r="11" fill="none" stroke="#fff" stroke-width="2.5"/>
    <line x1="115" y1="116" x2="125" y2="116" stroke="#fff" stroke-width="2.5"/>
    <circle cx="104" cy="116" r="2.5" fill="#fff"/>
    <circle cx="136" cy="116" r="2.5" fill="#fff"/>

    <path d="M 110,138 Q 120,144 130,138" stroke="#fff" stroke-width="2" stroke-linecap="round" fill="none"/>
    <path d="M 105,142 Q 120,154 135,142 L 135,150 Q 120,160 105,150 Z" fill="#020617"/>
  </g>

  <g transform="translate(160 32)">
    <path d="M 2,6 L 36,6 L 33,32 Q 33,36 28,36 L 10,36 Q 5,36 5,32 Z" fill="#fff"/>
    <ellipse cx="19" cy="8" rx="16" ry="3" fill="#3a2415"/>
    <path d="M 36,14 Q 46,14 46,21 Q 46,28 36,28" fill="none" stroke="#fff" stroke-width="2.5"/>
    <path d="M 14,-2 Q 16,-9 14,-15" stroke="#fff" stroke-width="2" stroke-linecap="round" fill="none" opacity="0.85"/>
    <path d="M 24,-2 Q 26,-9 24,-15" stroke="#fff" stroke-width="2" stroke-linecap="round" fill="none" opacity="0.85"/>
  </g>

  <circle cx="120" cy="120" r="110" fill="none" stroke="#fff" stroke-opacity="0.25" stroke-width="2"/>
</svg>
