<svg xmlns="http://www.w3.org/2000/svg" viewBox="0 0 1200 630" width="1200" height="630" role="img" aria-label="Дмитрий Полкин — главный редактор Popolkam.ru">
  <defs>
    <linearGradient id="ogAbg" x1="0%" y1="0%" x2="100%" y2="100%">
      <stop offset="0%" stop-color="#f97316"/>
      <stop offset="100%" stop-color="#ef4444"/>
    </linearGradient>
    <linearGradient id="ogAcard" x1="0%" y1="0%" x2="0%" y2="100%">
      <stop offset="0%" stop-color="#fff"/>
      <stop offset="100%" stop-color="#fef9f5"/>
    </linearGradient>
  </defs>

  <rect width="1200" height="630" fill="url(#ogAbg)"/>

  <g stroke="#fff" stroke-width="0.8" fill="none" opacity="0.18">
    <line x1="0" y1="120" x2="1200" y2="120"/>
    <line x1="0" y1="240" x2="1200" y2="240"/>
    <line x1="0" y1="360" x2="1200" y2="360"/>
    <line x1="0" y1="480" x2="1200" y2="480"/>
    <line x1="200" y1="0" x2="200" y2="630"/>
    <line x1="400" y1="0" x2="400" y2="630"/>
    <line x1="600" y1="0" x2="600" y2="630"/>
    <line x1="800" y1="0" x2="800" y2="630"/>
    <line x1="1000" y1="0" x2="1000" y2="630"/>
  </g>

  <g transform="translate(60 80)" filter="drop-shadow(0 12px 28px rgba(0,0,0,0.18))">
    <rect width="1080" height="470" rx="24" fill="url(#ogAcard)"/>

    <g transform="translate(60 70)">
      <rect width="56" height="56" rx="14" fill="url(#ogAbg)"/>
      <rect x="14" y="16" width="28" height="4" rx="2" fill="#fff"/>
      <rect x="16" y="26" width="24" height="4" rx="2" fill="#fff" fill-opacity="0.9"/>
      <rect x="18" y="36" width="20" height="4" rx="2" fill="#fff" fill-opacity="0.8"/>
      <text x="78" y="36" font-family="DM Sans,system-ui,sans-serif" font-size="22" font-weight="800" fill="#0f172a">popolkam<tspan fill="#f97316">.ru</tspan></text>
    </g>

    <g transform="translate(60 200)" font-family="DM Sans,system-ui,sans-serif">
      <text font-size="20" font-weight="700" fill="#c2410c" letter-spacing="2">ОБ АВТОРЕ</text>
      <text y="80" font-size="72" font-weight="800" fill="#0f172a">Дмитрий Полкин</text>
      <text y="138" font-size="22" font-weight="600" fill="#475569">Главный редактор · 38 · МГТУ им. Баумана</text>
      <text y="170" font-size="22" font-weight="600" fill="#475569">12 лет R&amp;D · теплофизика · бариста с 2014</text>
    </g>

    <g transform="translate(700 90)">
      <ellipse cx="120" cy="350" rx="120" ry="14" fill="#000" fill-opacity="0.10"/>
      <path d="M 30,350 L 30,260 Q 30,200 90,190 L 150,190 Q 210,200 210,260 L 210,350 Z" fill="#0f172a"/>
      <path d="M 30,350 L 30,310 Q 30,290 50,290 L 50,350 Z" fill="#1e293b"/>
      <path d="M 210,350 L 210,310 Q 210,290 190,290 L 190,350 Z" fill="#1e293b"/>
      <path d="M 90,190 L 90,210 Q 120,222 150,210 L 150,190 Z" fill="#1e293b"/>
      <rect x="108" y="170" width="24" height="22" fill="#0f172a"/>
      <ellipse cx="120" cy="138" rx="46" ry="50" fill="#0f172a"/>
      <path d="M 76,118 Q 76,82 120,76 Q 164,82 164,118 L 164,108 Q 164,90 120,90 Q 76,90 76,108 Z" fill="#020617"/>
      <path d="M 78,128 Q 86,98 108,94" stroke="#020617" stroke-width="4" stroke-linecap="round" fill="none"/>
      <path d="M 162,128 Q 154,98 132,94" stroke="#020617" stroke-width="4" stroke-linecap="round" fill="none"/>
      <circle cx="100" cy="138" r="14" fill="none" stroke="#fff" stroke-width="3"/>
      <circle cx="140" cy="138" r="14" fill="none" stroke="#fff" stroke-width="3"/>
      <line x1="114" y1="138" x2="126" y2="138" stroke="#fff" stroke-width="3"/>
      <circle cx="100" cy="138" r="3" fill="#fff"/>
      <circle cx="140" cy="138" r="3" fill="#fff"/>
      <path d="M 108,168 Q 120,176 132,168" stroke="#fff" stroke-width="2.5" stroke-linecap="round" fill="none"/>
      <path d="M 102,172 Q 120,186 138,172 L 138,182 Q 120,194 102,182 Z" fill="#020617"/>
      <path d="M 30,300 Q 38,290 56,294 L 56,326 Q 40,328 30,322 Z" fill="#f97316"/>
      <text x="42" y="316" font-family="DM Sans,sans-serif" font-size="10" font-weight="800" fill="#fff" text-anchor="middle">M</text>
    </g>
  </g>

  <g transform="translate(60 580)">
    <rect width="380" height="34" rx="17" fill="#fff"/>
    <text x="190" y="22" font-family="DM Sans,system-ui,sans-serif" font-size="13" font-weight="800" fill="#f97316" text-anchor="middle" letter-spacing="0.5">Литературный псевдоним редакции</text>
  </g>
  <g transform="translate(960 580)">
    <rect width="180" height="34" rx="17" fill="#0f172a"/>
    <text x="90" y="22" font-family="DM Sans,system-ui,sans-serif" font-size="13" font-weight="800" fill="#fff" text-anchor="middle" letter-spacing="0.5">popolkam.ru</text>
  </g>
</svg>
