<svg xmlns="http://www.w3.org/2000/svg" viewBox="0 0 360 460" width="360" height="460" role="img" aria-label="ПО-3000 — ретро-робот-бариста, маскот Popolkam">
  <defs>
    <radialGradient id="poBg" cx="50%" cy="40%" r="60%">
      <stop offset="0%" stop-color="#fff7ed" stop-opacity="0.9"/>
      <stop offset="100%" stop-color="#fff7ed" stop-opacity="0"/>
    </radialGradient>
    <linearGradient id="poChrome" x1="0%" y1="0%" x2="0%" y2="100%">
      <stop offset="0%" stop-color="#f1f5f9"/>
      <stop offset="40%" stop-color="#cbd5e1"/>
      <stop offset="60%" stop-color="#94a3b8"/>
      <stop offset="100%" stop-color="#64748b"/>
    </linearGradient>
    <linearGradient id="poBody" x1="0%" y1="0%" x2="0%" y2="100%">
      <stop offset="0%" stop-color="#e2e8f0"/>
      <stop offset="100%" stop-color="#94a3b8"/>
    </linearGradient>
    <linearGradient id="poEye" x1="0%" y1="0%" x2="0%" y2="100%">
      <stop offset="0%" stop-color="#fbbf24"/>
      <stop offset="100%" stop-color="#f97316"/>
    </linearGradient>
    <radialGradient id="poEyeGlow" cx="50%" cy="50%" r="60%">
      <stop offset="0%" stop-color="#fbbf24" stop-opacity="0.7"/>
      <stop offset="100%" stop-color="#f97316" stop-opacity="0"/>
    </radialGradient>
    <linearGradient id="poDome" x1="0%" y1="0%" x2="0%" y2="100%">
      <stop offset="0%" stop-color="#fff" stop-opacity="0.9"/>
      <stop offset="100%" stop-color="#cbd5e1" stop-opacity="0.3"/>
    </linearGradient>
    <linearGradient id="poCup" x1="0%" y1="0%" x2="0%" y2="100%">
      <stop offset="0%" stop-color="#fff"/>
      <stop offset="100%" stop-color="#e5e7eb"/>
    </linearGradient>
    <filter id="poShadow" x="-30%" y="-30%" width="160%" height="160%">
      <feGaussianBlur in="SourceAlpha" stdDeviation="3"/>
      <feOffset dx="0" dy="4" result="b"/>
      <feComponentTransfer><feFuncA type="linear" slope="0.18"/></feComponentTransfer>
      <feMerge><feMergeNode/><feMergeNode in="SourceGraphic"/></feMerge>
    </filter>
  </defs>

  <rect width="360" height="460" fill="#fafaf9"/>
  <rect width="360" height="460" fill="url(#poBg)"/>

  <ellipse cx="180" cy="420" rx="90" ry="14" fill="#000" fill-opacity="0.16"/>

  <g transform="translate(180 380)">
    <ellipse cx="0" cy="0" rx="74" ry="22" fill="url(#poChrome)" stroke="#475569" stroke-width="1.5"/>
    <ellipse cx="0" cy="-4" rx="74" ry="22" fill="url(#poChrome)" stroke="#475569" stroke-width="1.5"/>
    <ellipse cx="0" cy="-4" rx="56" ry="14" fill="#0f172a" opacity="0.4"/>
    <g fill="#475569">
      <circle cx="-50" cy="-2" r="2.5"/>
      <circle cx="-25" cy="-2" r="2.5"/>
      <circle cx="0" cy="-2" r="2.5"/>
      <circle cx="25" cy="-2" r="2.5"/>
      <circle cx="50" cy="-2" r="2.5"/>
    </g>
  </g>

  <g filter="url(#poShadow)">
    <path d="M 110,360 Q 110,210 180,200 Q 250,210 250,360 L 240,375 L 120,375 Z" fill="url(#poBody)" stroke="#475569" stroke-width="1.5"/>
    <ellipse cx="180" cy="200" rx="70" ry="12" fill="#cbd5e1" stroke="#475569" stroke-width="1.5"/>
    <line x1="118" y1="260" x2="242" y2="260" stroke="#475569" stroke-width="1" opacity="0.6"/>
    <line x1="118" y1="320" x2="242" y2="320" stroke="#475569" stroke-width="1" opacity="0.6"/>
    <g fill="#64748b">
      <circle cx="124" cy="290" r="3"/>
      <circle cx="236" cy="290" r="3"/>
      <circle cx="124" cy="350" r="3"/>
      <circle cx="236" cy="350" r="3"/>
    </g>
  </g>

  <g transform="translate(180 285)">
    <rect x="-46" y="-10" width="92" height="34" rx="6" fill="#0a0e17" stroke="#475569" stroke-width="1.5"/>
    <rect x="-44" y="-8" width="88" height="30" rx="4" fill="#86efac" opacity="0.18"/>
    <text x="0" y="14" font-family="ui-monospace,Menlo,Consolas,monospace" font-size="14" font-weight="700" fill="#86efac" text-anchor="middle">ПО-3000</text>
    <line x1="-40" y1="20" x2="40" y2="20" stroke="#22c55e" stroke-width="1" opacity="0.5"/>
  </g>

  <g transform="translate(140 235)">
    <rect width="80" height="14" rx="3" fill="#f97316"/>
    <path d="M 0,7 L 80,7" stroke="#fb923c" stroke-width="1" stroke-dasharray="4,2"/>
    <text x="40" y="12" font-family="DM Sans,sans-serif" font-size="9" font-weight="800" fill="#fff" text-anchor="middle" letter-spacing="0.8">POPOLKAM</text>
  </g>

  <g filter="url(#poShadow)">
    <ellipse cx="180" cy="135" rx="88" ry="78" fill="url(#poChrome)" stroke="#475569" stroke-width="1.5"/>
    <ellipse cx="180" cy="80" rx="76" ry="22" fill="url(#poDome)" stroke="#475569" stroke-width="1.2"/>
    <line x1="180" y1="40" x2="180" y2="20" stroke="#475569" stroke-width="2"/>
    <circle cx="180" cy="16" r="6" fill="#f97316"/>
    <circle cx="180" cy="16" r="6" fill="url(#poEyeGlow)"/>

    <ellipse cx="180" cy="145" rx="64" ry="50" fill="#0a0e17" opacity="0.85"/>

    <ellipse cx="156" cy="135" rx="14" ry="16" fill="url(#poEye)"/>
    <ellipse cx="156" cy="135" rx="14" ry="16" fill="url(#poEyeGlow)" opacity="0.6"/>
    <circle cx="158" cy="132" r="3" fill="#fff" opacity="0.85"/>

    <ellipse cx="204" cy="135" rx="14" ry="16" fill="url(#poEye)"/>
    <ellipse cx="204" cy="135" rx="14" ry="16" fill="url(#poEyeGlow)" opacity="0.6"/>
    <circle cx="206" cy="132" r="3" fill="#fff" opacity="0.85"/>

    <g fill="#fff" opacity="0.9">
      <rect x="160" y="168" width="4" height="6" rx="1"/>
      <rect x="170" y="168" width="4" height="6" rx="1"/>
      <rect x="180" y="168" width="4" height="6" rx="1"/>
      <rect x="190" y="168" width="4" height="6" rx="1"/>
      <rect x="200" y="168" width="4" height="6" rx="1"/>
    </g>

    <ellipse cx="160" cy="100" rx="32" ry="14" fill="#fff" opacity="0.4"/>
  </g>

  <g transform="translate(120 215)" filter="url(#poShadow)">
    <ellipse cx="0" cy="0" rx="22" ry="10" fill="url(#poChrome)" stroke="#475569" stroke-width="1.5"/>
  </g>
  <g transform="translate(108 215) rotate(70)">
    <rect x="-8" y="0" width="16" height="56" rx="3" fill="url(#poChrome)" stroke="#475569" stroke-width="1.5"/>
    <line x1="-8" y1="20" x2="8" y2="20" stroke="#475569" stroke-width="1" opacity="0.6"/>
    <line x1="-8" y1="40" x2="8" y2="40" stroke="#475569" stroke-width="1" opacity="0.6"/>
  </g>
  <g transform="translate(60 240)">
    <ellipse cx="0" cy="0" rx="14" ry="14" fill="url(#poChrome)" stroke="#475569" stroke-width="1.5"/>
    <circle cx="0" cy="0" r="6" fill="#475569"/>
  </g>

  <g transform="translate(240 215)" filter="url(#poShadow)">
    <ellipse cx="0" cy="0" rx="22" ry="10" fill="url(#poChrome)" stroke="#475569" stroke-width="1.5"/>
  </g>
  <g transform="translate(252 215) rotate(-70)">
    <rect x="-8" y="0" width="16" height="56" rx="3" fill="url(#poChrome)" stroke="#475569" stroke-width="1.5"/>
    <line x1="-8" y1="20" x2="8" y2="20" stroke="#475569" stroke-width="1" opacity="0.6"/>
    <line x1="-8" y1="40" x2="8" y2="40" stroke="#475569" stroke-width="1" opacity="0.6"/>
  </g>

  <g transform="translate(308 252)" filter="url(#poShadow)">
    <ellipse cx="0" cy="0" rx="16" ry="14" fill="url(#poChrome)" stroke="#475569" stroke-width="1.5"/>
    <g transform="translate(0 -8)">
      <path d="M -14,4 Q -14,10 -8,12 L 8,12 Q 14,10 14,4 L 12,0 L -12,0 Z" fill="url(#poCup)" stroke="#475569" stroke-width="1"/>
      <ellipse cx="0" cy="-2" rx="11" ry="2" fill="#92400e"/>
      <ellipse cx="0" cy="-3" rx="9" ry="1.5" fill="#fbbf24" fill-opacity="0.6"/>
      <path d="M 12,2 Q 18,2 18,6 Q 18,10 12,10" fill="none" stroke="#475569" stroke-width="1.2"/>
      <g stroke="#f97316" stroke-width="1.6" stroke-linecap="round" fill="none" opacity="0.8">
        <path d="M -4,-8 Q -2,-14 -4,-20"/>
        <path d="M 0,-8 Q 2,-14 0,-22"/>
        <path d="M 4,-8 Q 6,-14 4,-20"/>
      </g>
    </g>
  </g>

  <g transform="translate(96 270)">
    <rect width="40" height="14" rx="3" fill="#0f172a"/>
    <text x="20" y="10" font-family="DM Sans,sans-serif" font-size="9" font-weight="700" fill="#f97316" text-anchor="middle">v3.0</text>
  </g>

  <g transform="translate(80 60)" font-family="DM Sans,system-ui,sans-serif">
    <rect width="100" height="30" rx="6" fill="#fff" stroke="#fed7aa" stroke-width="2"/>
    <text x="50" y="14" font-size="9" font-weight="800" fill="#c2410c" text-anchor="middle" letter-spacing="0.5">КОФЕ ГОТОВ</text>
    <text x="50" y="25" font-size="9" font-weight="700" fill="#475569" text-anchor="middle">9 бар · 91°C</text>
    <path d="M 90,30 L 100,40 L 88,38 Z" fill="#fff" stroke="#fed7aa" stroke-width="2"/>
  </g>

  <g transform="translate(180 195)" opacity="0.45">
    <line x1="0" y1="0" x2="0" y2="-8" stroke="#f97316" stroke-width="1.5"/>
    <line x1="-6" y1="-2" x2="-12" y2="-6" stroke="#f97316" stroke-width="1.5"/>
    <line x1="6" y1="-2" x2="12" y2="-6" stroke="#f97316" stroke-width="1.5"/>
  </g>
</svg>
