<svg xmlns="http://www.w3.org/2000/svg" viewBox="0 0 1200 500" width="1200" height="500" role="img" aria-label="Лабораторный стенд 4beg: весы, штангенциркуль, GPS-часы, cutaway кроссовка, тредмил">
  <defs>
    <radialGradient id="brMspot" cx="50%" cy="44%" r="55%">
      <stop offset="0%" stop-color="#fff" stop-opacity="0.95"/>
      <stop offset="100%" stop-color="#fff" stop-opacity="0"/>
    </radialGradient>
    <linearGradient id="brMdevice" x1="0%" y1="0%" x2="0%" y2="100%">
      <stop offset="0%" stop-color="#1e293b"/>
      <stop offset="100%" stop-color="#0f172a"/>
    </linearGradient>
    <linearGradient id="brMlime" x1="0%" y1="0%" x2="100%" y2="0%">
      <stop offset="0%" stop-color="#84cc16"/>
      <stop offset="100%" stop-color="#65a30d"/>
    </linearGradient>
    <linearGradient id="brMshoe" x1="0%" y1="0%" x2="0%" y2="100%">
      <stop offset="0%" stop-color="#fff"/>
      <stop offset="100%" stop-color="#e5e7eb"/>
    </linearGradient>
    <linearGradient id="brMmidsole" x1="0%" y1="0%" x2="0%" y2="100%">
      <stop offset="0%" stop-color="#fef9c3"/>
      <stop offset="100%" stop-color="#fde68a"/>
    </linearGradient>
    <pattern id="brMgrid" x="0" y="0" width="20" height="20" patternUnits="userSpaceOnUse">
      <path d="M 20 0 L 0 0 0 20" fill="none" stroke="#0f172a" stroke-width="0.5" opacity="0.18"/>
    </pattern>
    <filter id="brMshadow" x="-30%" y="-30%" width="160%" height="160%">
      <feGaussianBlur in="SourceAlpha" stdDeviation="5"/>
      <feOffset dx="0" dy="6" result="b"/>
      <feComponentTransfer><feFuncA type="linear" slope="0.18"/></feComponentTransfer>
      <feMerge><feMergeNode/><feMergeNode in="SourceGraphic"/></feMerge>
    </filter>
  </defs>

  <rect width="1200" height="500" fill="#fafafa"/>
  <rect width="1200" height="500" fill="url(#brMspot)"/>

  <g transform="rotate(-2 600 250)">
    <rect x="240" y="100" width="720" height="320" fill="#fff" filter="url(#brMshadow)"/>
    <rect x="240" y="100" width="720" height="320" fill="url(#brMgrid)"/>
    <polyline points="280,360 340,330 400,340 460,300 520,310 580,260 640,290 700,240 760,260 820,220 880,235 940,210" fill="none" stroke="#84cc16" stroke-width="2.5" stroke-linecap="round" stroke-linejoin="round"/>
    <g fill="#84cc16">
      <circle cx="280" cy="360" r="3"/>
      <circle cx="400" cy="340" r="3"/>
      <circle cx="520" cy="310" r="3"/>
      <circle cx="640" cy="290" r="3"/>
      <circle cx="760" cy="260" r="3"/>
      <circle cx="880" cy="235" r="3"/>
    </g>
    <text x="270" y="130" font-family="DM Sans,sans-serif" font-size="11" font-weight="700" fill="#0f172a" opacity="0.7">Износ протектора, % — 100 км теста</text>
  </g>

  <path d="M 0,400 L 1200,380 L 1200,500 L 0,500 Z" fill="#0f172a"/>
  <g stroke="#84cc16" stroke-width="2" stroke-dasharray="20,8" stroke-linecap="round" fill="none" opacity="0.55">
    <path d="M 0,440 L 1200,420"/>
  </g>
  <g stroke="#fff" stroke-width="1" stroke-dasharray="20,8" stroke-linecap="round" fill="none" opacity="0.3">
    <path d="M 0,470 L 1200,450"/>
  </g>

  <g transform="translate(80 320)" filter="url(#brMshadow)">
    <rect width="170" height="100" rx="10" fill="url(#brMdevice)"/>
    <rect x="14" y="14" width="142" height="48" rx="4" fill="#0a0e17"/>
    <rect x="14" y="14" width="142" height="48" rx="4" fill="#84cc16" opacity="0.18"/>
    <text x="148" y="48" font-family="ui-monospace,Menlo,Consolas,monospace" font-size="26" font-weight="700" fill="#84cc16" text-anchor="end">215</text>
    <text x="148" y="60" font-family="ui-monospace,Menlo,Consolas,monospace" font-size="9" font-weight="600" fill="#84cc16" text-anchor="end" opacity="0.8">grams</text>
    <circle cx="32" cy="80" r="5" fill="#84cc16"/>
    <rect x="44" y="76" width="50" height="10" rx="2" fill="#0a0e17"/>
    <text x="69" y="84" font-family="DM Sans,sans-serif" font-size="8" font-weight="700" fill="#cbd5e1" text-anchor="middle">SCALE 0.1g</text>
    <rect x="100" y="76" width="56" height="10" rx="2" fill="#0a0e17"/>
    <text x="128" y="84" font-family="DM Sans,sans-serif" font-size="8" font-weight="700" fill="#cbd5e1" text-anchor="middle">TARE</text>
  </g>

  <g transform="translate(330 320)" filter="url(#brMshadow)">
    <ellipse cx="60" cy="98" rx="60" ry="6" fill="#000" fill-opacity="0.16"/>
    <rect x="0" y="20" width="120" height="28" rx="3" fill="#cbd5e1" stroke="#475569" stroke-width="1"/>
    <rect x="0" y="48" width="80" height="14" rx="2" fill="#94a3b8"/>
    <rect x="80" y="34" width="40" height="14" fill="#cbd5e1"/>
    <line x1="90" y1="34" x2="90" y2="48" stroke="#475569" stroke-width="1"/>
    <line x1="100" y1="34" x2="100" y2="48" stroke="#475569" stroke-width="1"/>
    <line x1="110" y1="34" x2="110" y2="48" stroke="#475569" stroke-width="1"/>
    <text x="100" y="32" font-family="ui-monospace,Menlo,Consolas,monospace" font-size="7" font-weight="700" fill="#0f172a" text-anchor="middle">32mm</text>
    <rect x="6" y="22" width="20" height="6" fill="#84cc16"/>
    <text x="16" y="28" font-family="ui-monospace,Menlo,Consolas,monospace" font-size="6" font-weight="700" fill="#0f172a" text-anchor="middle">CALIPER</text>
    <g transform="translate(20 64)">
      <ellipse cx="50" cy="20" rx="50" ry="20" fill="url(#brMshoe)" stroke="#475569" stroke-width="1.2"/>
      <rect x="0" y="20" width="100" height="12" rx="2" fill="url(#brMmidsole)" stroke="#ca8a04" stroke-width="0.8"/>
      <rect x="0" y="32" width="100" height="6" rx="2" fill="#0f172a"/>
      <line x1="105" y1="14" x2="118" y2="14" stroke="#475569" stroke-width="1"/>
      <line x1="105" y1="38" x2="118" y2="38" stroke="#475569" stroke-width="1"/>
      <line x1="115" y1="14" x2="115" y2="38" stroke="#475569" stroke-width="1"/>
      <text x="123" y="28" font-family="ui-monospace,Menlo,Consolas,monospace" font-size="9" font-weight="800" fill="#0f172a">stack</text>
      <text x="123" y="38" font-family="ui-monospace,Menlo,Consolas,monospace" font-size="9" font-weight="700" fill="#65a30d">32 мм</text>
    </g>
  </g>

  <g transform="translate(560 280)" filter="url(#brMshadow)">
    <rect x="20" y="-12" width="20" height="14" rx="2" fill="#0f172a"/>
    <rect x="80" y="-12" width="20" height="14" rx="2" fill="#0f172a"/>
    <rect x="0" y="0" width="120" height="120" rx="20" fill="url(#brMdevice)"/>
    <circle cx="60" cy="60" r="48" fill="#0a0e17"/>
    <circle cx="60" cy="60" r="44" fill="none" stroke="#84cc16" stroke-width="1" opacity="0.4"/>
    <text x="60" y="46" font-family="DM Sans,sans-serif" font-size="9" font-weight="700" fill="#84cc16" text-anchor="middle" opacity="0.9">PACE</text>
    <text x="60" y="68" font-family="ui-monospace,Menlo,Consolas,monospace" font-size="22" font-weight="800" fill="#84cc16" text-anchor="middle">5:24</text>
    <text x="60" y="84" font-family="ui-monospace,Menlo,Consolas,monospace" font-size="9" font-weight="700" fill="#84cc16" text-anchor="middle" opacity="0.85">мин/км</text>
    <rect x="14" y="124" width="92" height="14" rx="3" fill="#84cc16" opacity="0.35"/>
    <rect x="14" y="124" width="56" height="14" rx="3" fill="#84cc16"/>
    <text x="60" y="135" font-family="DM Sans,sans-serif" font-size="9" font-weight="800" fill="#0f172a" text-anchor="middle">61% MAX HR</text>
    <text x="60" y="156" font-family="DM Sans,sans-serif" font-size="9" font-weight="700" fill="#cbd5e1" text-anchor="middle">GPS WATCH</text>
  </g>

  <g transform="translate(740 290)" filter="url(#brMshadow)">
    <ellipse cx="100" cy="120" rx="100" ry="10" fill="#000" fill-opacity="0.18"/>
    <path d="M 20,80 Q 30,60 60,55 L 140,55 Q 175,60 195,80 Q 200,100 175,108 L 30,108 Q 12,100 20,80 Z" fill="url(#brMshoe)" stroke="#475569" stroke-width="1.5"/>
    <path d="M 22,90 Q 30,76 60,72 L 140,72 Q 170,76 188,90 Q 192,98 170,102 L 32,102 Q 18,98 22,90 Z" fill="url(#brMmidsole)" stroke="#ca8a04" stroke-width="1"/>
    <g stroke="#fff" stroke-width="0.8" opacity="0.4">
      <path d="M 24,84 L 192,84"/>
      <path d="M 24,92 L 190,92"/>
    </g>
    <path d="M 22,100 Q 30,118 60,118 L 168,118 Q 188,118 192,108 L 22,108 Z" fill="#0f172a"/>
    <g stroke="#84cc16" stroke-width="0.8" opacity="0.7">
      <path d="M 30,113 L 36,113"/>
      <path d="M 50,113 L 60,113"/>
      <path d="M 78,113 L 88,113"/>
      <path d="M 108,113 L 118,113"/>
      <path d="M 138,113 L 148,113"/>
      <path d="M 168,113 L 178,113"/>
    </g>
    <g stroke="#475569" stroke-width="2.5" stroke-dasharray="4,3" fill="none">
      <path d="M 80,40 L 80,55"/>
      <path d="M 95,40 L 95,55"/>
      <path d="M 110,40 L 110,55"/>
      <path d="M 125,40 L 125,55"/>
    </g>
    <line x1="200" y1="60" x2="220" y2="60" stroke="#0f172a" stroke-width="1.2"/>
    <line x1="200" y1="100" x2="220" y2="100" stroke="#0f172a" stroke-width="1.2"/>
    <line x1="218" y1="60" x2="218" y2="100" stroke="#0f172a" stroke-width="1.2"/>
    <text x="226" y="84" font-family="ui-monospace,Menlo,Consolas,monospace" font-size="11" font-weight="800" fill="#0f172a">8 мм</text>
    <text x="226" y="98" font-family="DM Sans,sans-serif" font-size="9" font-weight="600" fill="#475569">drop</text>
    <text x="100" y="36" font-family="DM Sans,sans-serif" font-size="9" font-weight="800" fill="#0f172a" text-anchor="middle" letter-spacing="0.5">CUTAWAY · 215 г</text>
  </g>

  <g transform="translate(1020 320)" filter="url(#brMshadow)">
    <rect width="150" height="60" rx="6" fill="url(#brMdevice)"/>
    <rect x="10" y="8" width="130" height="34" rx="3" fill="#0a0e17"/>
    <rect x="10" y="8" width="130" height="34" rx="3" fill="#84cc16" opacity="0.14"/>
    <text x="20" y="24" font-family="ui-monospace,Menlo,Consolas,monospace" font-size="11" font-weight="700" fill="#84cc16">DIST  10.0 km</text>
    <text x="20" y="36" font-family="ui-monospace,Menlo,Consolas,monospace" font-size="11" font-weight="700" fill="#84cc16">PACE  5:24</text>
    <rect x="10" y="46" width="130" height="8" rx="2" fill="#475569"/>
    <rect x="10" y="46" width="78" height="8" rx="2" fill="#84cc16"/>
    <rect x="50" y="60" width="50" height="14" rx="2" fill="#1e293b"/>
    <text x="75" y="70" font-family="DM Sans,sans-serif" font-size="9" font-weight="700" fill="#cbd5e1" text-anchor="middle">TREADMILL</text>
  </g>

  <g transform="translate(40 60)" font-family="DM Sans,system-ui,sans-serif">
    <rect width="220" height="36" rx="18" fill="#0f172a"/>
    <text x="20" y="23" font-size="13" font-weight="700" fill="#fff" letter-spacing="1.2">МЕТОДОЛОГИЯ</text>
    <circle cx="200" cy="18" r="10" fill="url(#brMlime)"/>
    <text x="200" y="22" font-size="13" font-weight="700" fill="#0f172a" text-anchor="middle">5</text>
  </g>
</svg>
